<?xml version="1.0" encoding="UTF-8" standalone="no"?>
<!-- Created with Inkscape (http://www.inkscape.org/) -->

<svg
   width="117.5366mm"
   height="47.06575mm"
   viewBox="0 0 117.5366 47.06575"
   version="1.1"
   id="svg1"
   inkscape:version="1.2.2 (b0a8486541, 2022-12-01)"
   sodipodi:docname="attention-string-diagram-new.svg"
   xmlns:inkscape="http://www.inkscape.org/namespaces/inkscape"
   xmlns:sodipodi="http://sodipodi.sourceforge.net/DTD/sodipodi-0.dtd"
   xmlns="http://www.w3.org/2000/svg"
   xmlns:svg="http://www.w3.org/2000/svg">
  <sodipodi:namedview
     id="namedview1"
     pagecolor="#ffffff"
     bordercolor="#cccccc"
     borderopacity="1"
     inkscape:showpageshadow="0"
     inkscape:pageopacity="1"
     inkscape:pagecheckerboard="0"
     inkscape:deskcolor="#d1d1d1"
     inkscape:document-units="mm"
     inkscape:zoom="2"
     inkscape:cx="225"
     inkscape:cy="31.75"
     inkscape:window-width="1078"
     inkscape:window-height="929"
     inkscape:window-x="0"
     inkscape:window-y="962"
     inkscape:window-maximized="0"
     inkscape:current-layer="layer1"
     inkscape:export-bgcolor="#ffffffff"
     showgrid="false" />
  <defs
     id="defs1">
    <marker
       style="overflow:visible"
       id="Triangle"
       refX="0"
       refY="0"
       orient="auto-start-reverse"
       inkscape:stockid="Triangle arrow"
       markerWidth="1.5"
       markerHeight="1.5"
       viewBox="0 0 1 1"
       inkscape:isstock="true"
       inkscape:collect="always"
       preserveAspectRatio="xMidYMid">
      <path
         transform="scale(0.5)"
         style="fill:context-stroke;fill-rule:evenodd;stroke:context-stroke;stroke-width:1pt"
         d="M 5.77,0 -2.88,5 V -5 Z"
         id="path135" />
    </marker>
    <g
       id="g3642">
      <symbol
         overflow="visible"
         id="symbol8518">
        <path
           style="stroke:none"
           d=""
           id="path5919" />
      </symbol>
      <symbol
         overflow="visible"
         id="symbol5492">
        <path
           style="stroke:none"
           d="M 4.28125,-5.578125 V -5.875 H 0.6875 v 0.296875 z m 0,0"
           id="path1740" />
      </symbol>
      <symbol
         overflow="visible"
         id="symbol7300">
        <path
           style="stroke:none"
           d="m 3.296875,2.390625 c 0,-0.03125 0,-0.046875 -0.171875,-0.21875 C 1.890625,0.921875 1.5625,-0.96875 1.5625,-2.5 c 0,-1.734375 0.375,-3.46875 1.609375,-4.703125 0.125,-0.125 0.125,-0.140625 0.125,-0.171875 0,-0.078125 -0.03125,-0.109375 -0.09375,-0.109375 -0.109375,0 -1,0.6875 -1.59375,1.953125 -0.5,1.09375 -0.625,2.203125 -0.625,3.03125 0,0.78125 0.109375,1.984375 0.65625,3.125 C 2.25,1.84375 3.09375,2.5 3.203125,2.5 c 0.0625,0 0.09375,-0.03125 0.09375,-0.109375 z m 0,0"
           id="path2353" />
      </symbol>
      <symbol
         overflow="visible"
         id="symbol1170">
        <path
           style="stroke:none"
           d="m 2.9375,-6.375 c 0,-0.25 0,-0.265625 -0.234375,-0.265625 C 2.078125,-6 1.203125,-6 0.890625,-6 v 0.3125 c 0.203125,0 0.78125,0 1.296875,-0.265625 v 5.171875 c 0,0.359375 -0.03125,0.46875 -0.921875,0.46875 h -0.3125 V 0 c 0.34375,-0.03125 1.203125,-0.03125 1.609375,-0.03125 0.390625,0 1.265625,0 1.609375,0.03125 v -0.3125 h -0.3125 c -0.90625,0 -0.921875,-0.109375 -0.921875,-0.46875 z m 0,0"
           id="path3475" />
      </symbol>
      <symbol
         overflow="visible"
         id="symbol8675">
        <path
           style="stroke:none"
           d="m 2.875,-2.5 c 0,-0.765625 -0.109375,-1.96875 -0.65625,-3.109375 -0.59375,-1.21875 -1.453125,-1.875 -1.546875,-1.875 -0.0625,0 -0.109375,0.046875 -0.109375,0.109375 0,0.03125 0,0.046875 0.1875,0.234375 0.984375,0.984375 1.546875,2.5625 1.546875,4.640625 0,1.71875 -0.359375,3.46875 -1.59375,4.71875 C 0.5625,2.34375 0.5625,2.359375 0.5625,2.390625 0.5625,2.453125 0.609375,2.5 0.671875,2.5 0.765625,2.5 1.671875,1.8125 2.25,0.546875 2.765625,-0.546875 2.875,-1.65625 2.875,-2.5 Z m 0,0"
           id="path4635" />
      </symbol>
      <symbol
         overflow="visible"
         id="symbol2135">
        <path
           style="stroke:none"
           d=""
           id="path3525" />
      </symbol>
      <symbol
         overflow="visible"
         id="symbol5013">
        <path
           style="stroke:none"
           d="m 4.84375,-3.796875 c 0.046875,-0.140625 0.046875,-0.15625 0.046875,-0.234375 0,-0.171875 -0.140625,-0.265625 -0.296875,-0.265625 -0.09375,0 -0.25,0.0625 -0.34375,0.203125 -0.015625,0.0625 -0.109375,0.359375 -0.140625,0.546875 -0.078125,0.25 -0.140625,0.53125 -0.203125,0.796875 l -0.453125,1.796875 c -0.03125,0.140625 -0.46875,0.84375 -1.125,0.84375 -0.5,0 -0.609375,-0.4375 -0.609375,-0.8125 C 1.71875,-1.375 1.890625,-2 2.21875,-2.875 2.375,-3.28125 2.421875,-3.390625 2.421875,-3.59375 c 0,-0.4375 -0.3125,-0.8125 -0.8125,-0.8125 -0.953125,0 -1.3125,1.453125 -1.3125,1.53125 0,0.109375 0.09375,0.109375 0.109375,0.109375 0.109375,0 0.109375,-0.03125 0.15625,-0.1875 0.28125,-0.9375 0.671875,-1.234375 1.015625,-1.234375 0.078125,0 0.25,0 0.25,0.3125 0,0.25 -0.109375,0.515625 -0.171875,0.703125 -0.40625,1.0625 -0.578125,1.625 -0.578125,2.09375 0,0.890625 0.625,1.1875 1.21875,1.1875 0.390625,0 0.71875,-0.171875 1,-0.453125 -0.125,0.515625 -0.25,1.015625 -0.640625,1.546875 -0.265625,0.328125 -0.640625,0.625 -1.09375,0.625 -0.140625,0 -0.59375,-0.03125 -0.765625,-0.421875 0.15625,0 0.296875,0 0.421875,-0.125 C 1.328125,1.203125 1.421875,1.0625 1.421875,0.875 1.421875,0.5625 1.15625,0.53125 1.0625,0.53125 0.828125,0.53125 0.5,0.6875 0.5,1.171875 c 0,0.5 0.4375,0.875 1.0625,0.875 1.015625,0 2.046875,-0.90625 2.328125,-2.03125 z m 0,0"
           id="path4555" />
      </symbol>
      <symbol
         overflow="visible"
         id="symbol4620">
        <path
           style="stroke:none"
           d="m 2.859375,-6.8125 c 0,0 0,-0.109375 -0.125,-0.109375 -0.234375,0 -0.953125,0.078125 -1.21875,0.109375 -0.078125,0 -0.1875,0.015625 -0.1875,0.1875 0,0.125 0.09375,0.125 0.234375,0.125 0.484375,0 0.5,0.0625 0.5,0.171875 L 2.03125,-6.125 0.59375,-0.390625 c -0.046875,0.140625 -0.046875,0.15625 -0.046875,0.21875 0,0.234375 0.203125,0.28125 0.296875,0.28125 0.125,0 0.265625,-0.09375 0.328125,-0.203125 0.046875,-0.09375 0.5,-1.9375 0.5625,-2.1875 0.34375,0.03125 1.15625,0.1875 1.15625,0.84375 0,0.078125 0,0.109375 -0.03125,0.21875 -0.015625,0.109375 -0.03125,0.234375 -0.03125,0.34375 0,0.578125 0.390625,0.984375 0.90625,0.984375 0.296875,0 0.578125,-0.15625 0.796875,-0.53125 0.25,-0.4375 0.359375,-0.984375 0.359375,-1 0,-0.109375 -0.09375,-0.109375 -0.125,-0.109375 -0.09375,0 -0.109375,0.046875 -0.140625,0.1875 -0.203125,0.71875 -0.421875,1.234375 -0.859375,1.234375 -0.203125,0 -0.328125,-0.109375 -0.328125,-0.46875 0,-0.171875 0.046875,-0.40625 0.078125,-0.5625 C 3.5625,-1.3125 3.5625,-1.34375 3.5625,-1.453125 3.5625,-2.09375 2.9375,-2.375 2.078125,-2.5 2.390625,-2.671875 2.71875,-2.984375 2.9375,-3.234375 3.421875,-3.765625 3.875,-4.1875 4.359375,-4.1875 c 0.0625,0 0.078125,0 0.09375,0.015625 0.125,0.015625 0.125,0.015625 0.21875,0.078125 0.015625,0 0.015625,0.015625 0.03125,0.03125 -0.46875,0.03125 -0.5625,0.421875 -0.5625,0.546875 0,0.15625 0.109375,0.34375 0.375,0.34375 0.265625,0 0.546875,-0.21875 0.546875,-0.609375 0,-0.296875 -0.234375,-0.625 -0.671875,-0.625 -0.28125,0 -0.734375,0.078125 -1.453125,0.875 -0.34375,0.375 -0.734375,0.78125 -1.109375,0.921875 z m 0,0"
           id="path1611" />
      </symbol>
    </g>
    <g
       id="g6548">
      <symbol
         overflow="visible"
         id="symbol5706">
        <path
           style="stroke:none"
           d=""
           id="path5830" />
      </symbol>
      <symbol
         overflow="visible"
         id="symbol8250">
        <path
           style="stroke:none"
           d="M 4.28125,-5.578125 V -5.875 H 0.6875 v 0.296875 z m 0,0"
           id="path5395" />
      </symbol>
      <symbol
         overflow="visible"
         id="symbol278">
        <path
           style="stroke:none"
           d=""
           id="path7018" />
      </symbol>
      <symbol
         overflow="visible"
         id="symbol4072">
        <path
           style="stroke:none"
           d="m 4.84375,-3.796875 c 0.046875,-0.140625 0.046875,-0.15625 0.046875,-0.234375 0,-0.171875 -0.140625,-0.265625 -0.296875,-0.265625 -0.09375,0 -0.25,0.0625 -0.34375,0.203125 -0.015625,0.0625 -0.109375,0.359375 -0.140625,0.546875 -0.078125,0.25 -0.140625,0.53125 -0.203125,0.796875 l -0.453125,1.796875 c -0.03125,0.140625 -0.46875,0.84375 -1.125,0.84375 -0.5,0 -0.609375,-0.4375 -0.609375,-0.8125 C 1.71875,-1.375 1.890625,-2 2.21875,-2.875 2.375,-3.28125 2.421875,-3.390625 2.421875,-3.59375 c 0,-0.4375 -0.3125,-0.8125 -0.8125,-0.8125 -0.953125,0 -1.3125,1.453125 -1.3125,1.53125 0,0.109375 0.09375,0.109375 0.109375,0.109375 0.109375,0 0.109375,-0.03125 0.15625,-0.1875 0.28125,-0.9375 0.671875,-1.234375 1.015625,-1.234375 0.078125,0 0.25,0 0.25,0.3125 0,0.25 -0.109375,0.515625 -0.171875,0.703125 -0.40625,1.0625 -0.578125,1.625 -0.578125,2.09375 0,0.890625 0.625,1.1875 1.21875,1.1875 0.390625,0 0.71875,-0.171875 1,-0.453125 -0.125,0.515625 -0.25,1.015625 -0.640625,1.546875 -0.265625,0.328125 -0.640625,0.625 -1.09375,0.625 -0.140625,0 -0.59375,-0.03125 -0.765625,-0.421875 0.15625,0 0.296875,0 0.421875,-0.125 C 1.328125,1.203125 1.421875,1.0625 1.421875,0.875 1.421875,0.5625 1.15625,0.53125 1.0625,0.53125 0.828125,0.53125 0.5,0.6875 0.5,1.171875 c 0,0.5 0.4375,0.875 1.0625,0.875 1.015625,0 2.046875,-0.90625 2.328125,-2.03125 z m 0,0"
           id="path7895" />
      </symbol>
      <symbol
         overflow="visible"
         id="symbol6937">
        <path
           style="stroke:none"
           d="m 2.859375,-6.8125 c 0,0 0,-0.109375 -0.125,-0.109375 -0.234375,0 -0.953125,0.078125 -1.21875,0.109375 -0.078125,0 -0.1875,0.015625 -0.1875,0.1875 0,0.125 0.09375,0.125 0.234375,0.125 0.484375,0 0.5,0.0625 0.5,0.171875 L 2.03125,-6.125 0.59375,-0.390625 c -0.046875,0.140625 -0.046875,0.15625 -0.046875,0.21875 0,0.234375 0.203125,0.28125 0.296875,0.28125 0.125,0 0.265625,-0.09375 0.328125,-0.203125 0.046875,-0.09375 0.5,-1.9375 0.5625,-2.1875 0.34375,0.03125 1.15625,0.1875 1.15625,0.84375 0,0.078125 0,0.109375 -0.03125,0.21875 -0.015625,0.109375 -0.03125,0.234375 -0.03125,0.34375 0,0.578125 0.390625,0.984375 0.90625,0.984375 0.296875,0 0.578125,-0.15625 0.796875,-0.53125 0.25,-0.4375 0.359375,-0.984375 0.359375,-1 0,-0.109375 -0.09375,-0.109375 -0.125,-0.109375 -0.09375,0 -0.109375,0.046875 -0.140625,0.1875 -0.203125,0.71875 -0.421875,1.234375 -0.859375,1.234375 -0.203125,0 -0.328125,-0.109375 -0.328125,-0.46875 0,-0.171875 0.046875,-0.40625 0.078125,-0.5625 C 3.5625,-1.3125 3.5625,-1.34375 3.5625,-1.453125 3.5625,-2.09375 2.9375,-2.375 2.078125,-2.5 2.390625,-2.671875 2.71875,-2.984375 2.9375,-3.234375 3.421875,-3.765625 3.875,-4.1875 4.359375,-4.1875 c 0.0625,0 0.078125,0 0.09375,0.015625 0.125,0.015625 0.125,0.015625 0.21875,0.078125 0.015625,0 0.015625,0.015625 0.03125,0.03125 -0.46875,0.03125 -0.5625,0.421875 -0.5625,0.546875 0,0.15625 0.109375,0.34375 0.375,0.34375 0.265625,0 0.546875,-0.21875 0.546875,-0.609375 0,-0.296875 -0.234375,-0.625 -0.671875,-0.625 -0.28125,0 -0.734375,0.078125 -1.453125,0.875 -0.34375,0.375 -0.734375,0.78125 -1.109375,0.921875 z m 0,0"
           id="path8701" />
      </symbol>
      <symbol
         overflow="visible"
         id="symbol5682">
        <path
           style="stroke:none"
           d="M 3.328125,-3.015625 C 3.390625,-3.265625 3.625,-4.1875 4.3125,-4.1875 c 0.046875,0 0.296875,0 0.5,0.125 C 4.53125,-4 4.34375,-3.765625 4.34375,-3.515625 c 0,0.15625 0.109375,0.34375 0.375,0.34375 0.21875,0 0.53125,-0.171875 0.53125,-0.578125 0,-0.515625 -0.578125,-0.65625 -0.921875,-0.65625 -0.578125,0 -0.921875,0.53125 -1.046875,0.75 -0.25,-0.65625 -0.78125,-0.75 -1.078125,-0.75 -1.03125,0 -1.609375,1.28125 -1.609375,1.53125 0,0.109375 0.109375,0.109375 0.125,0.109375 0.078125,0 0.109375,-0.03125 0.125,-0.109375 0.34375,-1.0625 1,-1.3125 1.34375,-1.3125 0.1875,0 0.53125,0.09375 0.53125,0.671875 0,0.3125 -0.171875,0.96875 -0.53125,2.375 -0.15625,0.609375 -0.515625,1.03125 -0.953125,1.03125 -0.0625,0 -0.28125,0 -0.5,-0.125 0.25,-0.0625 0.46875,-0.265625 0.46875,-0.546875 0,-0.265625 -0.21875,-0.34375 -0.359375,-0.34375 -0.3125,0 -0.546875,0.25 -0.546875,0.578125 0,0.453125 0.484375,0.65625 0.921875,0.65625 0.671875,0 1.03125,-0.703125 1.046875,-0.75 0.125,0.359375 0.484375,0.75 1.078125,0.75 1.03125,0 1.59375,-1.28125 1.59375,-1.53125 0,-0.109375 -0.078125,-0.109375 -0.109375,-0.109375 -0.09375,0 -0.109375,0.046875 -0.140625,0.109375 -0.328125,1.078125 -1,1.3125 -1.3125,1.3125 -0.390625,0 -0.546875,-0.3125 -0.546875,-0.65625 0,-0.21875 0.046875,-0.4375 0.15625,-0.875 z m 0,0"
           id="path5245" />
      </symbol>
    </g>
    <g
       id="g5433">
      <symbol
         overflow="visible"
         id="symbol7161">
        <path
           style="stroke:none"
           d=""
           id="path2076" />
      </symbol>
      <symbol
         overflow="visible"
         id="symbol9016">
        <path
           style="stroke:none"
           d="M 4.28125,-5.578125 V -5.875 H 0.6875 v 0.296875 z m 0,0"
           id="path4743" />
      </symbol>
      <symbol
         overflow="visible"
         id="symbol8986">
        <path
           style="stroke:none"
           d=""
           id="path4461" />
      </symbol>
      <symbol
         overflow="visible"
         id="symbol8266">
        <path
           style="stroke:none"
           d="m 4.84375,-3.796875 c 0.046875,-0.140625 0.046875,-0.15625 0.046875,-0.234375 0,-0.171875 -0.140625,-0.265625 -0.296875,-0.265625 -0.09375,0 -0.25,0.0625 -0.34375,0.203125 -0.015625,0.0625 -0.109375,0.359375 -0.140625,0.546875 -0.078125,0.25 -0.140625,0.53125 -0.203125,0.796875 l -0.453125,1.796875 c -0.03125,0.140625 -0.46875,0.84375 -1.125,0.84375 -0.5,0 -0.609375,-0.4375 -0.609375,-0.8125 C 1.71875,-1.375 1.890625,-2 2.21875,-2.875 2.375,-3.28125 2.421875,-3.390625 2.421875,-3.59375 c 0,-0.4375 -0.3125,-0.8125 -0.8125,-0.8125 -0.953125,0 -1.3125,1.453125 -1.3125,1.53125 0,0.109375 0.09375,0.109375 0.109375,0.109375 0.109375,0 0.109375,-0.03125 0.15625,-0.1875 0.28125,-0.9375 0.671875,-1.234375 1.015625,-1.234375 0.078125,0 0.25,0 0.25,0.3125 0,0.25 -0.109375,0.515625 -0.171875,0.703125 -0.40625,1.0625 -0.578125,1.625 -0.578125,2.09375 0,0.890625 0.625,1.1875 1.21875,1.1875 0.390625,0 0.71875,-0.171875 1,-0.453125 -0.125,0.515625 -0.25,1.015625 -0.640625,1.546875 -0.265625,0.328125 -0.640625,0.625 -1.09375,0.625 -0.140625,0 -0.59375,-0.03125 -0.765625,-0.421875 0.15625,0 0.296875,0 0.421875,-0.125 C 1.328125,1.203125 1.421875,1.0625 1.421875,0.875 1.421875,0.5625 1.15625,0.53125 1.0625,0.53125 0.828125,0.53125 0.5,0.6875 0.5,1.171875 c 0,0.5 0.4375,0.875 1.0625,0.875 1.015625,0 2.046875,-0.90625 2.328125,-2.03125 z m 0,0"
           id="path4679" />
      </symbol>
      <symbol
         overflow="visible"
         id="symbol483">
        <path
           style="stroke:none"
           d="m 2.859375,-6.8125 c 0,0 0,-0.109375 -0.125,-0.109375 -0.234375,0 -0.953125,0.078125 -1.21875,0.109375 -0.078125,0 -0.1875,0.015625 -0.1875,0.1875 0,0.125 0.09375,0.125 0.234375,0.125 0.484375,0 0.5,0.0625 0.5,0.171875 L 2.03125,-6.125 0.59375,-0.390625 c -0.046875,0.140625 -0.046875,0.15625 -0.046875,0.21875 0,0.234375 0.203125,0.28125 0.296875,0.28125 0.125,0 0.265625,-0.09375 0.328125,-0.203125 0.046875,-0.09375 0.5,-1.9375 0.5625,-2.1875 0.34375,0.03125 1.15625,0.1875 1.15625,0.84375 0,0.078125 0,0.109375 -0.03125,0.21875 -0.015625,0.109375 -0.03125,0.234375 -0.03125,0.34375 0,0.578125 0.390625,0.984375 0.90625,0.984375 0.296875,0 0.578125,-0.15625 0.796875,-0.53125 0.25,-0.4375 0.359375,-0.984375 0.359375,-1 0,-0.109375 -0.09375,-0.109375 -0.125,-0.109375 -0.09375,0 -0.109375,0.046875 -0.140625,0.1875 -0.203125,0.71875 -0.421875,1.234375 -0.859375,1.234375 -0.203125,0 -0.328125,-0.109375 -0.328125,-0.46875 0,-0.171875 0.046875,-0.40625 0.078125,-0.5625 C 3.5625,-1.3125 3.5625,-1.34375 3.5625,-1.453125 3.5625,-2.09375 2.9375,-2.375 2.078125,-2.5 2.390625,-2.671875 2.71875,-2.984375 2.9375,-3.234375 3.421875,-3.765625 3.875,-4.1875 4.359375,-4.1875 c 0.0625,0 0.078125,0 0.09375,0.015625 0.125,0.015625 0.125,0.015625 0.21875,0.078125 0.015625,0 0.015625,0.015625 0.03125,0.03125 -0.46875,0.03125 -0.5625,0.421875 -0.5625,0.546875 0,0.15625 0.109375,0.34375 0.375,0.34375 0.265625,0 0.546875,-0.21875 0.546875,-0.609375 0,-0.296875 -0.234375,-0.625 -0.671875,-0.625 -0.28125,0 -0.734375,0.078125 -1.453125,0.875 -0.34375,0.375 -0.734375,0.78125 -1.109375,0.921875 z m 0,0"
           id="path6879" />
      </symbol>
    </g>
    <g
       id="g2441">
      <symbol
         overflow="visible"
         id="symbol3729">
        <path
           style="stroke:none"
           d=""
           id="path6542" />
      </symbol>
      <symbol
         overflow="visible"
         id="symbol3474">
        <path
           style="stroke:none"
           d="M 4.28125,-5.578125 V -5.875 H 0.6875 v 0.296875 z m 0,0"
           id="path2266" />
      </symbol>
      <symbol
         overflow="visible"
         id="symbol1718">
        <path
           style="stroke:none"
           d=""
           id="path3906" />
      </symbol>
      <symbol
         overflow="visible"
         id="symbol8082">
        <path
           style="stroke:none"
           d="M 3.328125,-3.015625 C 3.390625,-3.265625 3.625,-4.1875 4.3125,-4.1875 c 0.046875,0 0.296875,0 0.5,0.125 C 4.53125,-4 4.34375,-3.765625 4.34375,-3.515625 c 0,0.15625 0.109375,0.34375 0.375,0.34375 0.21875,0 0.53125,-0.171875 0.53125,-0.578125 0,-0.515625 -0.578125,-0.65625 -0.921875,-0.65625 -0.578125,0 -0.921875,0.53125 -1.046875,0.75 -0.25,-0.65625 -0.78125,-0.75 -1.078125,-0.75 -1.03125,0 -1.609375,1.28125 -1.609375,1.53125 0,0.109375 0.109375,0.109375 0.125,0.109375 0.078125,0 0.109375,-0.03125 0.125,-0.109375 0.34375,-1.0625 1,-1.3125 1.34375,-1.3125 0.1875,0 0.53125,0.09375 0.53125,0.671875 0,0.3125 -0.171875,0.96875 -0.53125,2.375 -0.15625,0.609375 -0.515625,1.03125 -0.953125,1.03125 -0.0625,0 -0.28125,0 -0.5,-0.125 0.25,-0.0625 0.46875,-0.265625 0.46875,-0.546875 0,-0.265625 -0.21875,-0.34375 -0.359375,-0.34375 -0.3125,0 -0.546875,0.25 -0.546875,0.578125 0,0.453125 0.484375,0.65625 0.921875,0.65625 0.671875,0 1.03125,-0.703125 1.046875,-0.75 0.125,0.359375 0.484375,0.75 1.078125,0.75 1.03125,0 1.59375,-1.28125 1.59375,-1.53125 0,-0.109375 -0.078125,-0.109375 -0.109375,-0.109375 -0.09375,0 -0.109375,0.046875 -0.140625,0.109375 -0.328125,1.078125 -1,1.3125 -1.3125,1.3125 -0.390625,0 -0.546875,-0.3125 -0.546875,-0.65625 0,-0.21875 0.046875,-0.4375 0.15625,-0.875 z m 0,0"
           id="path6947" />
      </symbol>
      <symbol
         overflow="visible"
         id="symbol9201">
        <path
           style="stroke:none"
           d="m 2.859375,-6.8125 c 0,0 0,-0.109375 -0.125,-0.109375 -0.234375,0 -0.953125,0.078125 -1.21875,0.109375 -0.078125,0 -0.1875,0.015625 -0.1875,0.1875 0,0.125 0.09375,0.125 0.234375,0.125 0.484375,0 0.5,0.0625 0.5,0.171875 L 2.03125,-6.125 0.59375,-0.390625 c -0.046875,0.140625 -0.046875,0.15625 -0.046875,0.21875 0,0.234375 0.203125,0.28125 0.296875,0.28125 0.125,0 0.265625,-0.09375 0.328125,-0.203125 0.046875,-0.09375 0.5,-1.9375 0.5625,-2.1875 0.34375,0.03125 1.15625,0.1875 1.15625,0.84375 0,0.078125 0,0.109375 -0.03125,0.21875 -0.015625,0.109375 -0.03125,0.234375 -0.03125,0.34375 0,0.578125 0.390625,0.984375 0.90625,0.984375 0.296875,0 0.578125,-0.15625 0.796875,-0.53125 0.25,-0.4375 0.359375,-0.984375 0.359375,-1 0,-0.109375 -0.09375,-0.109375 -0.125,-0.109375 -0.09375,0 -0.109375,0.046875 -0.140625,0.1875 -0.203125,0.71875 -0.421875,1.234375 -0.859375,1.234375 -0.203125,0 -0.328125,-0.109375 -0.328125,-0.46875 0,-0.171875 0.046875,-0.40625 0.078125,-0.5625 C 3.5625,-1.3125 3.5625,-1.34375 3.5625,-1.453125 3.5625,-2.09375 2.9375,-2.375 2.078125,-2.5 2.390625,-2.671875 2.71875,-2.984375 2.9375,-3.234375 3.421875,-3.765625 3.875,-4.1875 4.359375,-4.1875 c 0.0625,0 0.078125,0 0.09375,0.015625 0.125,0.015625 0.125,0.015625 0.21875,0.078125 0.015625,0 0.015625,0.015625 0.03125,0.03125 -0.46875,0.03125 -0.5625,0.421875 -0.5625,0.546875 0,0.15625 0.109375,0.34375 0.375,0.34375 0.265625,0 0.546875,-0.21875 0.546875,-0.609375 0,-0.296875 -0.234375,-0.625 -0.671875,-0.625 -0.28125,0 -0.734375,0.078125 -1.453125,0.875 -0.34375,0.375 -0.734375,0.78125 -1.109375,0.921875 z m 0,0"
           id="path6005" />
      </symbol>
    </g>
    <marker
       style="overflow:visible"
       id="Triangle-1"
       refX="0"
       refY="0"
       orient="auto-start-reverse"
       inkscape:stockid="Triangle arrow"
       markerWidth="1.5"
       markerHeight="1.5"
       viewBox="0 0 1 1"
       inkscape:isstock="true"
       inkscape:collect="always"
       preserveAspectRatio="xMidYMid">
      <path
         transform="scale(0.5)"
         style="fill:context-stroke;fill-rule:evenodd;stroke:context-stroke;stroke-width:1pt"
         d="M 5.77,0 -2.88,5 V -5 Z"
         id="path135-5" />
    </marker>
  </defs>
  <g
     inkscape:label="Layer 1"
     inkscape:groupmode="layer"
     id="layer1"
     transform="translate(-40.785753,-100.51036)">
    <path
       style="fill:none;stroke:#000000;stroke-width:0.264583px;stroke-linecap:butt;stroke-linejoin:miter;stroke-opacity:1"
       d="m 48.36886,141.30892 h 65.7604 c 3.15064,0 5.68706,-2.00726 5.68706,-5.15789 v -0.42126 c 0,-3.15063 -2.53642,-5.68706 -5.68706,-5.68706 H 98.73761"
       id="path5-3-8-7"
       sodipodi:nodetypes="cssssc" />
    <path
       style="fill:none;stroke:#000000;stroke-width:0.265;stroke-linecap:butt;stroke-linejoin:miter;stroke-dasharray:none;stroke-opacity:1"
       d="m 48.445335,105.63966 h 71.744195 c 27.79062,-0.0154 16.32093,34.83131 29.30006,34.86983 h 8.24419"
       id="path5"
       sodipodi:nodetypes="cccc" />
    <path
       style="fill:none;stroke:#000000;stroke-width:0.264583px;stroke-linecap:butt;stroke-linejoin:miter;stroke-opacity:1"
       d="m 48.445335,130.19196 h 10.263132 c 7.717922,-0.0676 4.32434,-6.27167 12.176554,-6.29315 H 78.4371 c 3.150631,0 5.687059,-2.53643 5.687059,-5.68706 v -0.42126 c 0,-3.15063 -2.536428,-5.68706 -5.687059,-5.68706 H 48.757949 m 44.973246,18.08853 H 70.768063 c -8.81941,-0.0182 -3.188516,-6.2771 -11.812201,-6.29315 H 48.757949"
       id="path5-3-8"
       sodipodi:nodetypes="cccssssccccc" />
    <path
       style="fill:none;stroke:#000000;stroke-width:0.265;stroke-linecap:butt;stroke-linejoin:miter;stroke-dasharray:none;stroke-opacity:1;marker-end:url(#Triangle)"
       d="M 84.102428,118.26253 H 108.22162"
       id="path10" />
    <path
       style="fill:none;stroke:#000000;stroke-width:0.265;stroke-linecap:butt;stroke-linejoin:miter;stroke-dasharray:none;stroke-opacity:1;marker-end:url(#Triangle-1)"
       d="m 119.98851,136.1609 h 5.06919"
       id="path10-7"
       sodipodi:nodetypes="cc" />
    <path
       style="fill:none;stroke:#000000;stroke-width:0.264583px;stroke-linecap:butt;stroke-linejoin:miter;stroke-opacity:1"
       d="M 48.445335,147.44382 H 157.76036"
       id="path5-3-2"
       sodipodi:nodetypes="cc" />
    <path
       id="rect13"
       style="fill:#ffffff;fill-opacity:1;stroke:#000000;stroke-width:0.264999;stroke-linejoin:round;paint-order:markers fill stroke"
       d="m 100.6739,125.94169 v 8.46668 l -6.879136,-4.23334 z"
       sodipodi:nodetypes="cccc" />
    <circle
       style="fill:none;stroke:#ff0000;stroke-width:0.264999;stroke-linejoin:round;paint-order:markers fill stroke;stop-color:#000000"
       id="path1736"
       cx="49.911015"
       cy="103.04406"
       r="0.5" />
    <circle
       style="fill:none;stroke:#ff0000;stroke-width:0.264999;stroke-linejoin:round;paint-order:markers fill stroke;stop-color:#000000"
       id="path1736-79"
       cx="87.881584"
       cy="103.0239"
       r="0.5" />
    <circle
       style="fill:none;stroke:#ff0000;stroke-width:0.264999;stroke-linejoin:round;paint-order:markers fill stroke;stop-color:#000000"
       id="path1736-20"
       cx="87.881584"
       cy="127.63015"
       r="0.5" />
    <circle
       style="fill:none;stroke:#ff0000;stroke-width:0.264999;stroke-linejoin:round;paint-order:markers fill stroke;stop-color:#000000"
       id="path1736-23"
       cx="90.52742"
       cy="114.66557"
       r="0.5" />
    <circle
       style="fill:none;stroke:#ff0000;stroke-width:0.264999;stroke-linejoin:round;paint-order:markers fill stroke;stop-color:#000000"
       id="path1736-75"
       cx="109.31284"
       cy="127.63015"
       r="0.5" />
    <circle
       style="fill:none;stroke:#ff0000;stroke-width:0.264999;stroke-linejoin:round;paint-order:markers fill stroke;stop-color:#000000"
       id="path1736-92"
       cx="109.31284"
       cy="139.00723"
       r="0.5" />
    <circle
       style="fill:none;stroke:#ff0000;stroke-width:0.264999;stroke-linejoin:round;paint-order:markers fill stroke;stop-color:#000000"
       id="path1736-28"
       cx="92.247215"
       cy="137.15515"
       r="0.5" />
    <circle
       style="fill:none;stroke:#ff0000;stroke-width:0.264999;stroke-linejoin:round;paint-order:markers fill stroke;stop-color:#000000"
       id="path1736-97"
       cx="122.67429"
       cy="131.99577"
       r="0.5" />
    <circle
       style="fill:none;stroke:#ff0000;stroke-width:0.264999;stroke-linejoin:round;paint-order:markers fill stroke;stop-color:#000000"
       id="path1736-36"
       cx="156.14409"
       cy="137.68433"
       r="0.5" />
    <circle
       style="fill:none;stroke:#ff0000;stroke-width:0.264999;stroke-linejoin:round;paint-order:markers fill stroke;stop-color:#000000"
       id="path1736-1"
       cx="156.14409"
       cy="144.03432"
       r="0.5" />
    <circle
       style="fill:none;stroke:#ff0000;stroke-width:0.264999;stroke-linejoin:round;paint-order:markers fill stroke;stop-color:#000000"
       id="path1736-7"
       cx="49.781586"
       cy="109.17546"
       r="0.5" />
    <circle
       style="fill:none;stroke:#ff0000;stroke-width:0.264999;stroke-linejoin:round;paint-order:markers fill stroke;stop-color:#000000"
       id="path1736-0"
       cx="49.715439"
       cy="120.55255"
       r="0.5" />
    <circle
       style="fill:none;stroke:#ff0000;stroke-width:0.264999;stroke-linejoin:round;paint-order:markers fill stroke;stop-color:#000000"
       id="path1736-9"
       cx="49.649296"
       cy="127.49786"
       r="0.5" />
    <circle
       style="fill:none;stroke:#ff0000;stroke-width:0.264999;stroke-linejoin:round;paint-order:markers fill stroke;stop-color:#000000"
       id="path1736-3"
       cx="49.847733"
       cy="138.08119"
       r="0.5" />
    <circle
       style="fill:none;stroke:#ff0000;stroke-width:0.264999;stroke-linejoin:round;paint-order:markers fill stroke;stop-color:#000000"
       id="path1736-6"
       cx="49.78159"
       cy="144.96036"
       r="0.5" />
    <circle
       style="fill:none;stroke:#ff0000;stroke-width:0.264999;stroke-linejoin:round;paint-order:markers fill stroke;stop-color:#000000"
       id="path1736-06"
       cx="43.431587"
       cy="144.76192"
       r="0.5" />
    <circle
       style="fill:none;stroke:#ff0000;stroke-width:0.264999;stroke-linejoin:round;paint-order:markers fill stroke;stop-color:#000000"
       id="path1736-2"
       cx="43.100857"
       cy="126.57182"
       r="0.5" />
    <circle
       style="fill:none;stroke:#ff0000;stroke-width:0.264999;stroke-linejoin:round;paint-order:markers fill stroke;stop-color:#000000"
       id="path1736-61"
       cx="43.49773"
       cy="108.71244"
       r="0.5" />
    <circle
       style="fill:none;stroke:#ff0000;stroke-width:0.264999;stroke-linejoin:round;paint-order:markers fill stroke;stop-color:#000000"
       id="path1736-8"
       cx="70.94825"
       cy="118.43588"
       r="0.5" />
  </g>
  <g
     inkscape:groupmode="layer"
     id="layer2"
     inkscape:label="texts"
     style="display:inline">
    <text
       xml:space="preserve"
       style="font-size:29.3333px;line-height:1.25;font-family:'Alibaba Sans';-inkscape-font-specification:'Alibaba Sans';text-decoration-color:#000000;letter-spacing:0px;word-spacing:0px;white-space:pre;inline-size:162.472;display:inline;fill:#000000;stroke-width:0.999999;-inkscape-stroke:none;stop-color:#000000"
       x="214.14796"
       y="429.88809"
       id="text1"
       transform="matrix(0.26458333,0,0,0.26458333,-40.785754,-100.51036)" />
    <text
       style="font-size:26.6667px;line-height:1.25;font-family:'Alibaba Sans';-inkscape-font-specification:'Alibaba Sans';text-decoration-color:#000000;letter-spacing:0px;word-spacing:0px;white-space:pre;inline-size:162.472;display:inline;fill:#000000;stroke-width:0.999999;-inkscape-stroke:none;stop-color:#000000"
       x="232.45799"
       y="421.1311"
       id="text2"
       transform="matrix(0.26458333,0,0,0.26458333,-61.638312,-100.72099)"
       xml:space="preserve"><tspan
         x="232.45799"
         y="421.1311"
         id="tspan3943"><tspan
           style="font-family:'Latin Modern Roman';-inkscape-font-specification:'Latin Modern Roman, '"
           id="tspan3941">Q
</tspan></tspan><tspan
         x="232.45799"
         y="455.02781"
         id="tspan3947"><tspan
           style="font-family:'Latin Modern Roman';-inkscape-font-specification:'Latin Modern Roman, '"
           id="tspan3945">
</tspan></tspan><tspan
         x="232.45799"
         y="488.92451"
         id="tspan3951"><tspan
           style="font-family:'Latin Modern Roman';-inkscape-font-specification:'Latin Modern Roman, '"
           id="tspan3949">K
</tspan></tspan><tspan
         x="232.45799"
         y="522.8212"
         id="tspan3955"><tspan
           style="font-family:'Latin Modern Roman';-inkscape-font-specification:'Latin Modern Roman, '"
           id="tspan3953">
</tspan></tspan><tspan
         x="232.45799"
         y="556.71793"
         id="tspan3959"><tspan
           style="font-family:'Latin Modern Roman';-inkscape-font-specification:'Latin Modern Roman, '"
           id="tspan3957">V</tspan></tspan></text>
    <text
       xml:space="preserve"
       style="font-size:18.6667px;line-height:1.45;font-family:'Alibaba Sans';-inkscape-font-specification:'Alibaba Sans';text-decoration-color:#000000;letter-spacing:0px;word-spacing:0px;white-space:pre;inline-size:162.472;display:inline;fill:#000000;stroke-width:0.999999;-inkscape-stroke:none;stop-color:#000000"
       x="232.45799"
       y="421.1311"
       id="text2-5"
       transform="matrix(0.26458333,0,0,0.26458333,-53.961395,-108.36105)"><tspan
         x="232.45799"
         y="421.1311"
         id="tspan3963"><tspan
           style="font-style:italic;font-family:'Latin Modern Roman';-inkscape-font-specification:'Latin Modern Roman, '"
           id="tspan3961">y
</tspan></tspan><tspan
         x="232.45799"
         y="448.59217"
         id="tspan3967"><tspan
           style="font-style:italic;font-family:'Latin Modern Roman';-inkscape-font-specification:'Latin Modern Roman, '"
           id="tspan3965">k</tspan></tspan></text>
    <text
       xml:space="preserve"
       style="font-size:18.6667px;line-height:1.45;font-family:'Alibaba Sans';-inkscape-font-specification:'Alibaba Sans';text-decoration-color:#000000;letter-spacing:0px;word-spacing:0px;white-space:pre;inline-size:162.472;display:inline;fill:#000000;stroke-width:0.999999;-inkscape-stroke:none;stop-color:#000000"
       x="232.45799"
       y="421.1311"
       id="text2-5-5"
       transform="matrix(0.26458333,0,0,0.26458333,-53.961395,-90.369382)"><tspan
         x="232.45799"
         y="421.1311"
         id="tspan3971"><tspan
           style="font-style:italic;font-family:'Latin Modern Roman';-inkscape-font-specification:'Latin Modern Roman, '"
           id="tspan3969">x
</tspan></tspan><tspan
         x="232.45799"
         y="448.59217"
         id="tspan3975"><tspan
           style="font-style:italic;font-family:'Latin Modern Roman';-inkscape-font-specification:'Latin Modern Roman, '"
           id="tspan3973">k</tspan></tspan></text>
    <text
       xml:space="preserve"
       style="font-size:18.6667px;line-height:2.25;font-family:'Alibaba Sans';-inkscape-font-specification:'Alibaba Sans';text-decoration-color:#000000;letter-spacing:0px;word-spacing:0px;white-space:pre;inline-size:162.472;display:inline;fill:#000000;stroke-width:0.999999;-inkscape-stroke:none;stop-color:#000000"
       x="232.45799"
       y="421.1311"
       id="text2-5-5-5"
       transform="matrix(0.26458333,0,0,0.26458333,5.6628149,-83.280808)"><tspan
         x="232.45799"
         y="421.1311"
         id="tspan3979"><tspan
           style="font-style:italic;font-family:'Latin Modern Roman';-inkscape-font-specification:'Latin Modern Roman, '"
           id="tspan3977">x
</tspan></tspan><tspan
         x="232.45799"
         y="463.52552"
         id="tspan3983"><tspan
           style="font-style:italic;font-family:'Latin Modern Roman';-inkscape-font-specification:'Latin Modern Roman, '"
           id="tspan3981">x</tspan></tspan></text>
    <text
       xml:space="preserve"
       style="font-size:18.6667px;line-height:1.65;font-family:'Alibaba Sans';-inkscape-font-specification:'Alibaba Sans';text-decoration-color:#000000;letter-spacing:0px;word-spacing:0px;white-space:pre;inline-size:162.472;display:inline;fill:#000000;stroke-width:0.999999;-inkscape-stroke:none;stop-color:#000000"
       x="232.45799"
       y="421.1311"
       id="text2-5-5-5-8"
       transform="matrix(0.26458333,0,0,0.26458333,-16.033015,-108.15164)"><tspan
         x="232.45799"
         y="421.1311"
         id="tspan3987"><tspan
           style="font-style:italic;font-family:'Latin Modern Roman';-inkscape-font-specification:'Latin Modern Roman, '"
           id="tspan3985">y
</tspan></tspan><tspan
         x="232.45799"
         y="452.32551"
         id="tspan3991"><tspan
           style="font-style:italic;font-family:'Latin Modern Roman';-inkscape-font-specification:'Latin Modern Roman, '"
           id="tspan3989">
</tspan></tspan><tspan
         x="232.45799"
         y="483.51991"
         id="tspan3995"><tspan
           style="font-style:italic;font-family:'Latin Modern Roman';-inkscape-font-specification:'Latin Modern Roman, '"
           id="tspan3993">
</tspan></tspan><tspan
         x="232.45799"
         y="514.7143"
         id="tspan3999"><tspan
           style="font-style:italic;font-family:'Latin Modern Roman';-inkscape-font-specification:'Latin Modern Roman, '"
           id="tspan3997">x</tspan></tspan></text>
    <text
       xml:space="preserve"
       style="font-size:18.6667px;line-height:1.45;font-family:'Alibaba Sans';-inkscape-font-specification:'Alibaba Sans';text-decoration-color:#000000;letter-spacing:0px;word-spacing:0px;white-space:pre;inline-size:162.472;display:inline;fill:#000000;stroke-width:0.999999;-inkscape-stroke:none;stop-color:#000000"
       x="232.45799"
       y="421.1311"
       id="text2-5-54"
       transform="matrix(0.26458333,0,0,0.26458333,-53.961395,-72.906879)"><tspan
         x="232.45799"
         y="421.1311"
         id="tspan4003"><tspan
           style="font-style:italic;font-family:'Latin Modern Roman';-inkscape-font-specification:'Latin Modern Roman, '"
           id="tspan4001">x
</tspan></tspan><tspan
         x="232.45799"
         y="448.59217"
         id="tspan4007"><tspan
           style="font-style:italic;font-family:'Latin Modern Roman';-inkscape-font-specification:'Latin Modern Roman, '"
           id="tspan4005">k</tspan></tspan></text>
    <text
       xml:space="preserve"
       style="font-size:18.6667px;line-height:1.45;font-family:'Alibaba Sans';-inkscape-font-specification:'Alibaba Sans';text-decoration-color:#000000;letter-spacing:0px;word-spacing:0px;white-space:pre;inline-size:162.472;display:inline;fill:#000000;stroke-width:0.999999;-inkscape-stroke:none;stop-color:#000000"
       x="232.45799"
       y="421.1311"
       id="text2-5-8"
       transform="matrix(0.26458333,0,0,0.26458333,52.374522,-73.49122)"><tspan
         x="232.45799"
         y="421.1311"
         id="tspan4011"><tspan
           style="font-style:italic;font-family:'Latin Modern Roman';-inkscape-font-specification:'Latin Modern Roman, '"
           id="tspan4009">y
</tspan></tspan><tspan
         x="232.45799"
         y="448.59217"
         id="tspan4015"><tspan
           style="font-style:italic;font-family:'Latin Modern Roman';-inkscape-font-specification:'Latin Modern Roman, '"
           id="tspan4013">k</tspan></tspan></text>
    <text
       xml:space="preserve"
       style="font-size:13.3333px;line-height:1.25;font-family:'Alibaba Sans';-inkscape-font-specification:'Alibaba Sans';text-decoration-color:#000000;letter-spacing:0px;word-spacing:0px;white-space:pre;inline-size:162.472;display:inline;fill:#000000;stroke-width:0.999999;-inkscape-stroke:none;stop-color:#000000"
       x="238"
       y="336"
       id="text13"
       transform="matrix(0.26458333,0,0,0.26458333,-34.435754,-69.818692)"><tspan
         x="238"
         y="336"
         id="tspan4017">MatMul</tspan></text>
    <text
       xml:space="preserve"
       style="font-size:13.3333px;line-height:1.25;font-family:'Alibaba Sans';-inkscape-font-specification:'Alibaba Sans';text-decoration-color:#000000;letter-spacing:0px;word-spacing:0px;white-space:pre;inline-size:162.472;display:inline;fill:#000000;stroke-width:0.999999;-inkscape-stroke:none;stop-color:#000000"
       x="238"
       y="336"
       id="text13-09"
       transform="matrix(0.26458333,0,0,0.26458333,17.344973,-56.025095)"><tspan
         x="238"
         y="336"
         id="tspan4019">MatMul</tspan></text>
    <text
       xml:space="preserve"
       style="font-size:13.3333px;line-height:1.25;font-family:'Alibaba Sans';-inkscape-font-specification:'Alibaba Sans';text-decoration-color:#000000;letter-spacing:0px;word-spacing:0px;white-space:pre;inline-size:162.472;display:inline;fill:#000000;stroke-width:0.999999;-inkscape-stroke:none;stop-color:#000000"
       x="238"
       y="336"
       id="text13-06"
       transform="matrix(0.26458333,0,0,0.26458333,-12.552944,-50.998012)"><tspan
         x="238"
         y="336"
         id="tspan4021">Softmax</tspan></text>
    <text
       xml:space="preserve"
       style="font-size:13.3333px;line-height:1.25;font-family:'Alibaba Sans';-inkscape-font-specification:'Alibaba Sans';text-decoration-color:#000000;letter-spacing:0px;word-spacing:0px;white-space:pre;inline-size:162.472;display:inline;fill:#000000;stroke-width:0.999999;-inkscape-stroke:none;stop-color:#000000"
       x="238"
       y="336"
       id="text13-0"
       transform="matrix(0.26458333,0,0,0.26458333,-14.140443,-73.752176)"><tspan
         x="238"
         y="336"
         id="tspan4023">Scale *k-1/2</tspan></text>
  </g>
</svg>
